<svg id="Layer_1" data-name="Layer 1" xmlns="http://www.w3.org/2000/svg" xmlns:xlink="http://www.w3.org/1999/xlink" viewBox="0 0 760.21 849.73"><defs><style>.cls-1,.cls-2{fill:none;}.cls-1{clip-rule:evenodd;}.cls-2{stroke:#585858;stroke-miterlimit:10;stroke-width:57px;}.cls-3{clip-path:url(#clip-path);}.cls-4{fill:#585858;}.cls-5{clip-path:url(#clip-path-2);}.cls-6{clip-path:url(#clip-path-3);}.cls-7{clip-path:url(#clip-path-4);}</style><clipPath id="clip-path" transform="translate(-100.5 144.84)"><path class="cls-1" d="M434.28-.41c29.67-14.76,35.13-7.34,12.2,16.59L255.6,215.35c-9.17,9.57-16.6,6.57-16.6-6.68V109.76c0-7.18,5.22-15.6,11.63-18.79Z"/></clipPath><clipPath id="clip-path-2" transform="translate(-100.5 144.84)"><path class="cls-1" d="M422.1,532c29.85,14.38,35.88,6.26,13.44-18.14L255.24,317.8c-9-9.75-16.24-6.92-16.24,6.35V430.82c0,7.18,5.24,15.53,11.72,18.65Z"/></clipPath><clipPath id="clip-path-3" transform="translate(-100.5 144.84)"><path class="cls-1" d="M299,267.72c0-18.19,120.44-130.79,120.44-130.79,9.61-9.11,19.05-5.88,20.53,7.28,0,0,4.64,12.64,4.64,123.5S440,391.05,440,391.05c-1.73,13.12-11,16.4-20.56,7.27C419.42,398.32,299,285.91,299,267.72Z"/></clipPath><clipPath id="clip-path-4" transform="translate(-100.5 144.84)"><path class="cls-1" d="M489,12.82c0-18.22,13.37-26.71,29.85-18.94l201,94.62C729.3,93,737,105.1,737,115.59v62.63a19,19,0,0,1-19,19h-9.22a20,20,0,0,1-20-20v-25c0-8.28-6.22-17.5-13.91-20.59L559.93,85.36c-9.74-3.92-17.63,1.4-17.63,11.9V446.67c0,10.49,7.85,15.72,17.52,11.67l115.12-48.1c7.65-3.2,13.85-12.49,13.85-20.79V366h0c0-10.49-8-16.22-18-12.79L646,361.75c-9.92,3.43-18-2.3-18-12.8V335.44c0-10.49,8.09-21.62,18.08-24.86l72.85-23.64c10-3.24,18.08,2.64,18.08,13.13V418.43c0,10.49-7.66,22.7-17.09,27.27L518.7,543.08c-16.4,7.94-29.7-.39-29.7-18.62V12.82Z"/></clipPath></defs><title>logo</title><path class="cls-2" d="M445.3-109.43c19.5-9.15,51.15-9.22,70.69-.16L796.83,20.6c19.54,9.06,35.38,33.86,35.38,55.4V484c0,21.54-15.85,46.35-35.38,55.4L516,669.6c-19.54,9.06-51.23,9.06-70.77,0L164.38,539.4C144.84,530.34,129,505.54,129,484V78c0-21.54,15.81-46.41,35.3-55.56Z" transform="translate(-100.5 144.84)"/><g class="cls-3"><rect class="cls-4" x="133.5" y="131.84" width="231.66" height="238.95"/></g><g class="cls-5"><rect class="cls-4" x="133.5" y="451.84" width="220.1" height="237.11"/></g><g class="cls-6"><rect class="cls-4" x="193.5" y="271.6" width="155.61" height="281.74"/></g><g class="cls-7"><rect class="cls-4" x="383.5" y="130.84" width="258" height="565.09"/></g></svg>