<svg id="Layer_1" data-name="Layer 1" xmlns="http://www.w3.org/2000/svg" xmlns:xlink="http://www.w3.org/1999/xlink" viewBox="0 0 60 80"><defs><style>.cls-1{fill:none;clip-rule:evenodd;}.cls-2{clip-path:url(#clip-path);}.cls-3{fill:#757575;}</style><clipPath id="clip-path"><path class="cls-1" d="M7.68,28.47A3.47,3.47,0,0,1,8.91,26l9-6.75a2.45,2.45,0,0,1,2.85,0l8.81,7a1.34,1.34,0,0,0,1.6,0l8.66-7a2.45,2.45,0,0,1,2.84-.06L51.81,26A3.44,3.44,0,0,1,53,28.47V53c0,2.27-1.6,3.2-3.57,2.08l-7.36-4.19a1.91,1.91,0,0,0-1.77,0l-8.23,5.11a3.65,3.65,0,0,1-3.5,0L20.22,51a1.9,1.9,0,0,0-1.77,0L11.24,55.1c-2,1.14-3.56.22-3.56-2.06V28.47Z"/></clipPath></defs><title>Untitled-6</title><g class="cls-2"><path class="cls-3" d="M30.34,57.81a4.67,4.67,0,0,1-2.41-.63L19.54,52a0.71,0.71,0,0,0-.46,0l-7.21,4.17a3.77,3.77,0,0,1-3.8.25A3.77,3.77,0,0,1,6.39,53V28.47A4.71,4.71,0,0,1,8.14,25l9-6.75a3.76,3.76,0,0,1,4.42.06l8.79,7h0l8.63-7a3.76,3.76,0,0,1,4.42-.09L52.57,25a4.68,4.68,0,0,1,1.76,3.49V53a3.45,3.45,0,0,1-5.49,3.2L41.47,52a0.71,0.71,0,0,0-.46,0l-8.23,5.11A4.68,4.68,0,0,1,30.34,57.81Zm-11-8.37a3.06,3.06,0,0,1,1.58.42L29.28,55a2.39,2.39,0,0,0,2.15,0l8.23-5.11a3.18,3.18,0,0,1,3.08-.06L50.11,54a1.42,1.42,0,0,0,1.24.24,1.42,1.42,0,0,0,.41-1.2V28.47A2.2,2.2,0,0,0,51,27L41.9,20.27a1.18,1.18,0,0,0-1.27,0l-8.66,7a2.62,2.62,0,0,1-3.21,0l-8.81-7a1.18,1.18,0,0,0-1.27,0L9.68,27A2.24,2.24,0,0,0,9,28.47V53a1.42,1.42,0,0,0,.4,1.19A1.41,1.41,0,0,0,10.59,54l7.21-4.17A3,3,0,0,1,19.31,49.44Zm11-24.17h0Z"/></g><path class="cls-3" d="M30.24,44.66l-0.55-.92c-0.35-.58-3.38-5.7-3.38-7.72a3.93,3.93,0,1,1,7.86,0c0,2-3,7.14-3.38,7.72Zm0-11.43A2.73,2.73,0,0,0,27.6,36c0,1.08,1.45,4,2.65,6.11,1.19-2.11,2.65-5,2.65-6.11A2.73,2.73,0,0,0,30.24,33.23Z"/><path class="cls-3" d="M30.23,38.65A2.45,2.45,0,1,1,32.6,36.2,2.42,2.42,0,0,1,30.23,38.65Zm0-3.62a1.17,1.17,0,1,0,1.09,1.17A1.13,1.13,0,0,0,30.23,35Z"/></svg>