<svg id="Layer_1" data-name="Layer 1" xmlns="http://www.w3.org/2000/svg" xmlns:xlink="http://www.w3.org/1999/xlink" viewBox="0 0 60 80"><defs><style>.cls-1{fill:none;clip-rule:evenodd;}.cls-2{fill:#757575;}.cls-3{clip-path:url(#clip-path);}.cls-4{clip-path:url(#clip-path-2);}</style><clipPath id="clip-path"><path class="cls-1" d="M17.59,26.1a4.88,4.88,0,0,1,4.88-4.88H33.15c0.67,0,1.43.44,3,1.66,0.28,0.22,6.65-11.16,6.65-11.16S44,9.1,46.09,10.05s1,3.09,1,3.09S39.64,25.69,39.92,26c1.4,1.39,2.25,2.69,2.25,3.25V50.57a4.88,4.88,0,0,1-4.88,4.88H22.47a4.88,4.88,0,0,1-4.88-4.88V26.1Z"/></clipPath><clipPath id="clip-path-2"><path class="cls-1" d="M43.34,11a2.22,2.22,0,1,1,3.84,2.22L33.48,37a8.68,8.68,0,0,1-3.09,2.91l0.36-.18a1.35,1.35,0,0,1-2.11-1.22l0,0.4a8.69,8.69,0,0,1,1-4.13Z"/></clipPath></defs><title>Untitled-6</title><rect class="cls-2" x="33.27" y="21.93" width="1.29" height="7.13"/><rect class="cls-2" x="37.26" y="28.61" width="4.61" height="1.29"/><g class="cls-3"><path class="cls-2" d="M37.28,56.74H22.47a6.18,6.18,0,0,1-6.17-6.17V26.1a6.18,6.18,0,0,1,6.17-6.17H33.15a4.66,4.66,0,0,1,2.71,1.13c1.15-1.83,3.58-6,5.76-9.93,0.71-1.51,2.6-3.32,5-2.25a3.26,3.26,0,0,1,1.88,1.95,3.94,3.94,0,0,1-.33,2.94l0,0c-2.4,4.07-5.76,9.92-6.74,11.87,0.94,1,2,2.45,2,3.55V50.57A6.18,6.18,0,0,1,37.28,56.74ZM22.48,22.5a3.6,3.6,0,0,0-3.6,3.6V50.57a3.6,3.6,0,0,0,3.6,3.6h14.8a3.6,3.6,0,0,0,3.6-3.6V29.29A8.49,8.49,0,0,0,39,26.88c-0.77-.77-0.35-1.55.77-3.64,0.58-1.08,1.42-2.57,2.48-4.42,1.72-3,3.49-6,3.66-6.3a1.36,1.36,0,0,0,.13-0.87,0.83,0.83,0,0,0-.48-0.41c-1-.43-1.61,1-1.63,1l0,0.1s-1.57,2.81-3.16,5.57c-3.5,6.07-3.66,6.1-4.35,6.23l-0.58.11-0.48-.38a7.52,7.52,0,0,0-2.16-1.38H22.48Zm18.41,6.82h0Z"/></g><g class="cls-4"><path class="cls-2" d="M29.92,41.2a2.49,2.49,0,0,1-1.26-.33A2.68,2.68,0,0,1,27.4,39h0l0-.39h0a10,10,0,0,1,1.16-4.45l13.7-23.72a3.5,3.5,0,1,1,6.06,3.5L34.59,37.61a10,10,0,0,1-3.27,3.23h0L31,41v0A3,3,0,0,1,29.92,41.2Zm0-2.65,0,0.08,0.08,0a7.59,7.59,0,0,0,2.32-2.28L46.06,12.6a0.93,0.93,0,1,0-1.61-.93L30.75,35.39A7.6,7.6,0,0,0,29.94,38.54Z"/></g><polygon class="cls-2" points="33.49 36.16 32.37 35.55 32.38 35.53 31 36.15 31.06 34.69 30.91 34.85 29.98 33.97 32.51 31.27 32.38 34.13 35.32 32.81 33.49 36.16"/></svg>