<svg id="Layer_1" data-name="Layer 1" xmlns="http://www.w3.org/2000/svg" xmlns:xlink="http://www.w3.org/1999/xlink" viewBox="0 0 60 80"><defs><style>.cls-1,.cls-2,.cls-3{fill:none;}.cls-1{clip-rule:evenodd;}.cls-3,.cls-9{fill-rule:evenodd;}.cls-4{clip-path:url(#clip-path);}.cls-5{fill:#757575;}.cls-6{clip-path:url(#clip-path-2);}.cls-7{clip-path:url(#clip-path-3);}.cls-8{clip-path:url(#clip-path-4);}.cls-9{fill:#fff;}.cls-10{clip-path:url(#clip-path-6);}.cls-11{clip-path:url(#clip-path-7);}</style><clipPath id="clip-path"><path class="cls-1" d="M23.9,24.5V21.95a2.83,2.83,0,0,1,2.84-2.83h4a2.83,2.83,0,0,1,2.84,2.83v2.73S23.9,25,23.9,24.5Z"/></clipPath><clipPath id="clip-path-2"><rect class="cls-2" x="6.42" y="23.23" width="45.37" height="34.47" rx="4.88" ry="4.88"/></clipPath><clipPath id="clip-path-3"><path class="cls-1" d="M40.48,40.16v3.55a1.9,1.9,0,0,0,3.8,0V40.16A1.9,1.9,0,0,0,40.48,40.16Zm1.29,0a0.61,0.61,0,0,1,1.23,0v3.55a0.61,0.61,0,0,1-1.23,0V40.16Zm-6.43-7H49.42V50.75H35.34V33.12Z"/></clipPath><clipPath id="clip-path-4"><path class="cls-1" d="M41.12,40.16a1.26,1.26,0,0,1,2.51,0v3.55a1.26,1.26,0,0,1-2.51,0V40.16Z"/></clipPath><clipPath id="clip-path-6"><path class="cls-1" d="M14,39.9v3.55a1.9,1.9,0,0,0,3.8,0V39.9A1.9,1.9,0,0,0,14,39.9Zm1.29,0a0.61,0.61,0,0,1,1.23,0v3.55a0.61,0.61,0,0,1-1.23,0V39.9Zm-6.43-7H22.94V50.49H8.86V32.87Z"/></clipPath><clipPath id="clip-path-7"><path class="cls-1" d="M14.64,39.9a1.26,1.26,0,0,1,2.51,0v3.55a1.26,1.26,0,0,1-2.51,0V39.9Z"/></clipPath></defs><title>Untitled-6</title><g class="cls-4"><path class="cls-5" d="M27.82,26.08c-4.16,0-4.48-.31-4.8-0.62a1.33,1.33,0,0,1-.41-1V21.95a4.12,4.12,0,0,1,4.12-4.12h4a4.12,4.12,0,0,1,4.12,4.12v4l-1.24,0C31.11,26,29.24,26.08,27.82,26.08Zm-2.64-2.63c1.41,0.08,4.29.06,7.05,0V21.95a1.55,1.55,0,0,0-1.55-1.55h-4a1.55,1.55,0,0,0-1.55,1.55v1.5Z"/></g><g class="cls-6"><path class="cls-5" d="M46.91,59H11.3a6.18,6.18,0,0,1-6.17-6.17V28.11a6.18,6.18,0,0,1,6.17-6.17H46.91a6.18,6.18,0,0,1,6.17,6.17v24.7A6.18,6.18,0,0,1,46.91,59ZM11.3,24.51a3.6,3.6,0,0,0-3.6,3.6v24.7a3.6,3.6,0,0,0,3.6,3.6H46.91a3.6,3.6,0,0,0,3.6-3.6V28.11a3.6,3.6,0,0,0-3.6-3.6H11.3Z"/></g><path class="cls-5" d="M29,46.38a4,4,0,0,1-1.21-.17L7.25,39.52l0.4-1.22L28.19,45a3.2,3.2,0,0,0,1.57,0l21.56-6.71,0.38,1.23L30.14,46.23A4,4,0,0,1,29,46.38Z"/><g class="cls-7"><g class="cls-8"><path class="cls-9" d="M41.12,40.16a1.26,1.26,0,0,1,2.51,0v3.55a1.26,1.26,0,0,1-2.51,0V40.16Z"/></g></g><g class="cls-8"><path class="cls-5" d="M42.38,46.25a2.54,2.54,0,0,1-2.54-2.54V40.16a2.54,2.54,0,0,1,5.08,0v3.55A2.54,2.54,0,0,1,42.38,46.25Z"/></g><g class="cls-10"><g class="cls-11"><path class="cls-9" d="M14.64,39.9a1.26,1.26,0,0,1,2.51,0v3.55a1.26,1.26,0,0,1-2.51,0V39.9Z"/></g></g><g class="cls-11"><path class="cls-5" d="M15.9,46a2.54,2.54,0,0,1-2.54-2.54V39.9a2.54,2.54,0,0,1,5.08,0v3.55A2.54,2.54,0,0,1,15.9,46Z"/></g></svg>