<svg id="Layer_1" data-name="Layer 1" xmlns="http://www.w3.org/2000/svg" xmlns:xlink="http://www.w3.org/1999/xlink" viewBox="0 0 60 80"><defs><style>.cls-1{fill:none;}.cls-2{clip-path:url(#clip-path);}.cls-3{fill:#757575;}</style><clipPath id="clip-path"><rect class="cls-1" x="15.88" y="29.32" width="30.74" height="21" rx="4.88" ry="4.88"/></clipPath></defs><title>Untitled-6</title><g class="cls-2"><path class="cls-3" d="M41.74,51.6h-21a6.18,6.18,0,0,1-6.17-6.17V34.2A6.18,6.18,0,0,1,20.76,28h21a6.18,6.18,0,0,1,6.17,6.17V45.43A6.18,6.18,0,0,1,41.74,51.6Zm-21-21a3.6,3.6,0,0,0-3.6,3.6V45.43a3.6,3.6,0,0,0,3.6,3.6h21a3.6,3.6,0,0,0,3.6-3.6V34.2a3.6,3.6,0,0,0-3.6-3.6h-21Z"/></g><path class="cls-3" d="M31,45.82a1.88,1.88,0,0,1-1.21-.43L18,35.46l0.83-1L30.6,44.41a0.64,0.64,0,0,0,.76,0l12.11-9.94,0.82,1L32.17,45.41A1.88,1.88,0,0,1,31,45.82Z"/></svg>