<svg id="Layer_1" data-name="Layer 1" xmlns="http://www.w3.org/2000/svg" xmlns:xlink="http://www.w3.org/1999/xlink" viewBox="0 0 60 80"><defs><style>.cls-1,.cls-2{fill:none;}.cls-1{clip-rule:evenodd;}.cls-3{clip-path:url(#clip-path);}.cls-4{fill:#757575;}.cls-5{clip-path:url(#clip-path-2);}</style><clipPath id="clip-path"><path class="cls-1" d="M30,28.83c14.25,0,12.35,15,12.35,15H17.64S15.74,28.83,30,28.83Z"/></clipPath><clipPath id="clip-path-2"><rect class="cls-2" x="14.73" y="42.46" width="30.88" height="10.45" rx="2.31" ry="2.31"/></clipPath></defs><title>Untitled-6</title><g class="cls-3"><path class="cls-4" d="M43.48,45.08h-27L16.37,44c0-.31-0.9-7.53,3.34-12.34,2.38-2.7,5.84-4.07,10.29-4.07s7.91,1.37,10.29,4.07c4.24,4.81,3.37,12,3.34,12.34ZM18.85,42.51H41.13c0-2-.2-6.28-2.79-9.21-1.87-2.11-4.68-3.19-8.35-3.19s-6.48,1.07-8.35,3.19C19.05,36.23,18.81,40.5,18.85,42.51Z"/></g><g class="cls-5"><path class="cls-4" d="M43.29,54.19H17a3.6,3.6,0,0,1-3.6-3.6V44.77a3.6,3.6,0,0,1,3.6-3.6H43.29a3.6,3.6,0,0,1,3.6,3.6v5.82A3.6,3.6,0,0,1,43.29,54.19ZM17,43.74a1,1,0,0,0-1,1v5.82a1,1,0,0,0,1,1H43.29a1,1,0,0,0,1-1V44.77a1,1,0,0,0-1-1H17Z"/></g><path class="cls-4" d="M30.33,30.08A4.67,4.67,0,1,1,35,25.41,4.68,4.68,0,0,1,30.33,30.08Zm0-8.06a3.39,3.39,0,1,0,3.39,3.39A3.39,3.39,0,0,0,30.33,22Z"/></svg>